<svg width="24" height="24" viewBox="0 0 24 24" fill="none" xmlns="http://www.w3.org/2000/svg">
<path fill-rule="evenodd" clip-rule="evenodd" d="M10.3293 0H3.75C1.67893 0 0 1.67893 0 3.75V20.25C0 22.3211 1.67893 24 3.75 24H20.25C22.3211 24 24 22.3211 24 20.25V3.75C24 1.67893 22.3211 0 20.25 0H13.9707C13.7691 0.818197 13.0304 1.425 12.15 1.425C11.2696 1.425 10.5309 0.818197 10.3293 0ZM10.586 12.2415C11.0341 12.4566 11.6794 12.6 12.4125 12.6C13.1456 12.6 13.7909 12.4566 14.239 12.2415C14.714 12.0135 14.85 11.7712 14.85 11.625H15.6C15.6 12.2244 15.1064 12.6571 14.5635 12.9177C13.9936 13.1912 13.2327 13.35 12.4125 13.35C11.5923 13.35 10.8314 13.1912 10.2615 12.9177C9.71862 12.6571 9.225 12.2244 9.225 11.625H9.975C9.975 11.7712 10.111 12.0135 10.586 12.2415ZM4.65 9.375C5.68553 9.375 6.525 8.53553 6.525 7.5C6.525 6.46447 5.68553 5.625 4.65 5.625C3.61447 5.625 2.775 6.46447 2.775 7.5C2.775 8.53553 3.61447 9.375 4.65 9.375ZM15.9 9.375C16.9355 9.375 17.775 8.53553 17.775 7.5C17.775 6.46447 16.9355 5.625 15.9 5.625C14.8645 5.625 14.025 6.46447 14.025 7.5C14.025 8.53553 14.8645 9.375 15.9 9.375Z" fill="white"/>
</svg>
