<svg width="320" height="320" viewBox="0 0 320 320" fill="none" xmlns="http://www.w3.org/2000/svg">
<path fill-rule="evenodd" clip-rule="evenodd" d="M137.725 0H50C22.3858 0 0 22.3858 0 50V270C0 297.614 22.3858 320 50 320H270C297.614 320 320 297.614 320 270V50C320 22.3858 297.614 0 270 0H186.275C183.588 10.9093 173.739 19 162 19C150.261 19 140.412 10.9093 137.725 0ZM141.147 163.22C147.121 166.088 155.725 168 165.5 168C175.275 168 183.879 166.088 189.853 163.22C196.187 160.18 198 156.949 198 155H208C208 162.992 201.418 168.761 194.18 172.236C186.582 175.883 176.436 178 165.5 178C154.564 178 144.418 175.883 136.82 172.236C129.582 168.761 123 162.992 123 155H133C133 156.949 134.813 160.18 141.147 163.22ZM62 125C75.8071 125 87 113.807 87 100C87 86.1929 75.8071 75 62 75C48.1929 75 37 86.1929 37 100C37 113.807 48.1929 125 62 125ZM212 125C225.807 125 237 113.807 237 100C237 86.1929 225.807 75 212 75C198.193 75 187 86.1929 187 100C187 113.807 198.193 125 212 125Z" fill="#EFE9F4"/>
</svg>
